<?xml version="1.0" encoding="UTF-8" standalone="no"?><svg xmlns="http://www.w3.org/2000/svg" xmlns:xlink="http://www.w3.org/1999/xlink" contentScriptType="application/ecmascript" contentStyleType="text/css" height="571px" preserveAspectRatio="none" style="width:280px;height:571px;" version="1.1" viewBox="0 0 280 571" width="280px" zoomAndPan="magnify"><defs><filter height="300%" id="fsddvyjjcdbw9" width="300%" x="-1" y="-1"><feGaussianBlur result="blurOut" stdDeviation="2.0"/><feColorMatrix in="blurOut" result="blurOut2" type="matrix" values="0 0 0 0 0 0 0 0 0 0 0 0 0 0 0 0 0 0 .4 0"/><feOffset dx="4.0" dy="4.0" in="blurOut2" result="blurOut3"/><feBlend in="SourceGraphic" in2="blurOut3" mode="normal"/></filter></defs><g><text fill="#000000" font-family="sans-serif" font-size="18" lengthAdjust="spacingAndGlyphs" textLength="154" x="58.75" y="27.4023">&lt;预检请求时序图&gt;</text><rect fill="#FFFFFF" filter="url(#fsddvyjjcdbw9)" height="337.3047" style="stroke: #000000; stroke-width: 2.0;" width="245.5" x="13" y="205.6191"/><rect fill="#FFFFFF" height="57.2656" style="stroke: none; stroke-width: 1.0;" width="245.5" x="13" y="222.9297"/><rect fill="#FFFFFF" height="262.7285" style="stroke: none; stroke-width: 1.0;" width="245.5" x="13" y="280.1953"/><rect fill="#FFFFFF" filter="url(#fsddvyjjcdbw9)" height="131.8418" style="stroke: #000000; stroke-width: 2.0;" width="118.5" x="23" y="404.082"/><rect fill="#FFFFFF" height="57.2656" style="stroke: none; stroke-width: 1.0;" width="118.5" x="23" y="421.3926"/><rect fill="#FFFFFF" height="57.2656" style="stroke: none; stroke-width: 1.0;" width="118.5" x="23" y="478.6582"/><line style="stroke: #A80036; stroke-width: 1.0; stroke-dasharray: 5.0,5.0;" x1="57" x2="57" y1="86.6875" y2="559.9238"/><line style="stroke: #A80036; stroke-width: 1.0; stroke-dasharray: 5.0,5.0;" x1="224.5" x2="224.5" y1="86.6875" y2="559.9238"/><text fill="#000000" font-family="sans-serif" font-size="14" lengthAdjust="spacingAndGlyphs" textLength="42" x="33.5" y="83.7344">浏览器</text><path d="M37,42.1992 L37,66.1992 M37,54.1992 L54,54.1992 " fill="none" filter="url(#fsddvyjjcdbw9)" style="stroke: #A80036; stroke-width: 2.0;"/><ellipse cx="66" cy="54.1992" fill="#FEFECE" filter="url(#fsddvyjjcdbw9)" rx="12" ry="12" style="stroke: #A80036; stroke-width: 2.0;"/><text fill="#000000" font-family="sans-serif" font-size="14" lengthAdjust="spacingAndGlyphs" textLength="42" x="200.5" y="83.7344">服务器</text><ellipse cx="224.5" cy="54.1992" fill="#FEFECE" filter="url(#fsddvyjjcdbw9)" rx="12" ry="12" style="stroke: #A80036; stroke-width: 2.0;"/><line style="stroke: #A80036; stroke-width: 2.0;" x1="212.5" x2="236.5" y1="68.1992" y2="68.1992"/><rect fill="#EEEEEE" filter="url(#fsddvyjjcdbw9)" height="3" style="stroke: #EEEEEE; stroke-width: 1.0;" width="265.5" x="3" y="117.3428"/><line style="stroke: #000000; stroke-width: 1.0;" x1="3" x2="268.5" y1="117.3428" y2="117.3428"/><line style="stroke: #000000; stroke-width: 1.0;" x1="3" x2="268.5" y1="120.3428" y2="120.3428"/><rect fill="#EEEEEE" filter="url(#fsddvyjjcdbw9)" height="23.3105" style="stroke: #000000; stroke-width: 2.0;" width="82" x="94.75" y="106.6875"/><text fill="#000000" font-family="sans-serif" font-size="13" font-weight="bold" lengthAdjust="spacingAndGlyphs" textLength="68" x="100.75" y="123.2559">1. 预检请求</text><polygon fill="#A80036" points="212.5,157.3086,222.5,161.3086,212.5,165.3086,216.5,161.3086" style="stroke: #A80036; stroke-width: 1.0;"/><line style="stroke: #A80036; stroke-width: 1.0;" x1="57.5" x2="218.5" y1="161.3086" y2="161.3086"/><text fill="#000000" font-family="sans-serif" font-size="13" font-weight="bold" lengthAdjust="spacingAndGlyphs" textLength="9" x="64.5" y="156.5664">1</text><text fill="#000000" font-family="sans-serif" font-size="13" lengthAdjust="spacingAndGlyphs" textLength="130" x="77.5" y="156.5664">发送预检请求 options</text><polygon fill="#A80036" points="68.5,186.6191,58.5,190.6191,68.5,194.6191,64.5,190.6191" style="stroke: #A80036; stroke-width: 1.0;"/><line style="stroke: #A80036; stroke-width: 1.0; stroke-dasharray: 2.0,2.0;" x1="62.5" x2="223.5" y1="190.6191" y2="190.6191"/><text fill="#000000" font-family="sans-serif" font-size="13" font-weight="bold" lengthAdjust="spacingAndGlyphs" textLength="9" x="74.5" y="185.877">2</text><text fill="#000000" font-family="sans-serif" font-size="13" lengthAdjust="spacingAndGlyphs" textLength="78" x="87.5" y="185.877">响应预检请求</text><path d="M13,205.6191 L75,205.6191 L75,212.6191 L65,222.6191 L13,222.6191 L13,205.6191 " fill="#EEEEEE" style="stroke: #000000; stroke-width: 1.0;"/><rect fill="none" height="337.3047" style="stroke: #000000; stroke-width: 2.0;" width="245.5" x="13" y="205.6191"/><text fill="#000000" font-family="sans-serif" font-size="13" font-weight="bold" lengthAdjust="spacingAndGlyphs" textLength="17" x="28" y="219.1875">alt</text><line style="stroke: #000000; stroke-width: 1.0; stroke-dasharray: 2.0,2.0;" x1="13" x2="258.5" y1="223.9297" y2="223.9297"/><text fill="#000000" font-family="sans-serif" font-size="11" font-weight="bold" lengthAdjust="spacingAndGlyphs" textLength="52" x="18" y="234.5645">[响应非法]</text><line style="stroke: #A80036; stroke-width: 1.0;" x1="57.5" x2="99.5" y1="259.1953" y2="259.1953"/><line style="stroke: #A80036; stroke-width: 1.0;" x1="99.5" x2="99.5" y1="259.1953" y2="272.1953"/><line style="stroke: #A80036; stroke-width: 1.0;" x1="58.5" x2="99.5" y1="272.1953" y2="272.1953"/><polygon fill="#A80036" points="68.5,268.1953,58.5,272.1953,68.5,276.1953,64.5,272.1953" style="stroke: #A80036; stroke-width: 1.0;"/><text fill="#000000" font-family="sans-serif" font-size="13" font-weight="bold" lengthAdjust="spacingAndGlyphs" textLength="9" x="64.5" y="254.4531">3</text><text fill="#000000" font-family="sans-serif" font-size="13" lengthAdjust="spacingAndGlyphs" textLength="52" x="77.5" y="254.4531">直接报错</text><line style="stroke: #000000; stroke-width: 1.0; stroke-dasharray: 2.0,2.0;" x1="13" x2="258.5" y1="281.1953" y2="281.1953"/><text fill="#000000" font-family="sans-serif" font-size="11" font-weight="bold" lengthAdjust="spacingAndGlyphs" textLength="52" x="18" y="291.8301">[响应合法]</text><rect fill="#EEEEEE" filter="url(#fsddvyjjcdbw9)" height="3" style="stroke: #EEEEEE; stroke-width: 1.0;" width="265.5" x="3" y="315.8057"/><line style="stroke: #000000; stroke-width: 1.0;" x1="3" x2="268.5" y1="315.8057" y2="315.8057"/><line style="stroke: #000000; stroke-width: 1.0;" x1="3" x2="268.5" y1="318.8057" y2="318.8057"/><rect fill="#EEEEEE" filter="url(#fsddvyjjcdbw9)" height="23.3105" style="stroke: #000000; stroke-width: 2.0;" width="82" x="94.75" y="305.1504"/><text fill="#000000" font-family="sans-serif" font-size="13" font-weight="bold" lengthAdjust="spacingAndGlyphs" textLength="68" x="100.75" y="321.7188">2. 实际请求</text><polygon fill="#A80036" points="212.5,355.7715,222.5,359.7715,212.5,363.7715,216.5,359.7715" style="stroke: #A80036; stroke-width: 1.0;"/><line style="stroke: #A80036; stroke-width: 1.0;" x1="57.5" x2="218.5" y1="359.7715" y2="359.7715"/><text fill="#000000" font-family="sans-serif" font-size="13" font-weight="bold" lengthAdjust="spacingAndGlyphs" textLength="9" x="64.5" y="355.0293">4</text><text fill="#000000" font-family="sans-serif" font-size="13" lengthAdjust="spacingAndGlyphs" textLength="78" x="77.5" y="355.0293">发送实际请求</text><polygon fill="#A80036" points="68.5,385.082,58.5,389.082,68.5,393.082,64.5,389.082" style="stroke: #A80036; stroke-width: 1.0;"/><line style="stroke: #A80036; stroke-width: 1.0; stroke-dasharray: 2.0,2.0;" x1="62.5" x2="223.5" y1="389.082" y2="389.082"/><text fill="#000000" font-family="sans-serif" font-size="13" font-weight="bold" lengthAdjust="spacingAndGlyphs" textLength="9" x="74.5" y="384.3398">5</text><text fill="#000000" font-family="sans-serif" font-size="13" lengthAdjust="spacingAndGlyphs" textLength="52" x="87.5" y="384.3398">响应请求</text><path d="M23,404.082 L85,404.082 L85,411.082 L75,421.082 L23,421.082 L23,404.082 " fill="#EEEEEE" style="stroke: #000000; stroke-width: 1.0;"/><rect fill="none" height="131.8418" style="stroke: #000000; stroke-width: 2.0;" width="118.5" x="23" y="404.082"/><text fill="#000000" font-family="sans-serif" font-size="13" font-weight="bold" lengthAdjust="spacingAndGlyphs" textLength="17" x="38" y="417.6504">alt</text><line style="stroke: #000000; stroke-width: 1.0; stroke-dasharray: 2.0,2.0;" x1="23" x2="141.5" y1="422.3926" y2="422.3926"/><text fill="#000000" font-family="sans-serif" font-size="11" font-weight="bold" lengthAdjust="spacingAndGlyphs" textLength="52" x="28" y="433.0273">[响应非法]</text><line style="stroke: #A80036; stroke-width: 1.0;" x1="57.5" x2="99.5" y1="457.6582" y2="457.6582"/><line style="stroke: #A80036; stroke-width: 1.0;" x1="99.5" x2="99.5" y1="457.6582" y2="470.6582"/><line style="stroke: #A80036; stroke-width: 1.0;" x1="58.5" x2="99.5" y1="470.6582" y2="470.6582"/><polygon fill="#A80036" points="68.5,466.6582,58.5,470.6582,68.5,474.6582,64.5,470.6582" style="stroke: #A80036; stroke-width: 1.0;"/><text fill="#000000" font-family="sans-serif" font-size="13" font-weight="bold" lengthAdjust="spacingAndGlyphs" textLength="9" x="64.5" y="452.916">6</text><text fill="#000000" font-family="sans-serif" font-size="13" lengthAdjust="spacingAndGlyphs" textLength="52" x="77.5" y="452.916">直接报错</text><line style="stroke: #000000; stroke-width: 1.0; stroke-dasharray: 2.0,2.0;" x1="23" x2="141.5" y1="479.6582" y2="479.6582"/><text fill="#000000" font-family="sans-serif" font-size="11" font-weight="bold" lengthAdjust="spacingAndGlyphs" textLength="52" x="28" y="490.293">[响应合法]</text><line style="stroke: #A80036; stroke-width: 1.0;" x1="57.5" x2="99.5" y1="514.9238" y2="514.9238"/><line style="stroke: #A80036; stroke-width: 1.0;" x1="99.5" x2="99.5" y1="514.9238" y2="527.9238"/><line style="stroke: #A80036; stroke-width: 1.0;" x1="58.5" x2="99.5" y1="527.9238" y2="527.9238"/><polygon fill="#A80036" points="68.5,523.9238,58.5,527.9238,68.5,531.9238,64.5,527.9238" style="stroke: #A80036; stroke-width: 1.0;"/><text fill="#000000" font-family="sans-serif" font-size="13" font-weight="bold" lengthAdjust="spacingAndGlyphs" textLength="9" x="64.5" y="510.1816">7</text><text fill="#000000" font-family="sans-serif" font-size="13" lengthAdjust="spacingAndGlyphs" textLength="52" x="77.5" y="510.1816">处理请求</text><!--MD5=[e15c8083091862237a145d2c8c55bda8]
@startuml
title <预检请求时序图>

hide footbox

boundary "浏览器" as c
entity "服务器" as s

==1. 预检请求==
autonumber
c->s: 发送预检请求 options
s- ->c: 响应预检请求

alt
else 响应非法
c -> c: 直接报错

else 响应合法

==2. 实际请求==
c->s: 发送实际请求
s- ->c: 响应请求
alt
else 响应非法
c -> c: 直接报错

else 响应合法
c ->c: 处理请求
end
end
@enduml

PlantUML version 1.2020.09(Sun May 10 18:51:06 CST 2020)
(GPL source distribution)
Java Runtime: OpenJDK Runtime Environment
JVM: OpenJDK 64-Bit Server VM
Java Version: 14.0.1+14
Operating System: Mac OS X
Default Encoding: UTF-8
Language: zh
Country: CN
--></g></svg>